# xmcd CD database file
#
# Track frame offsets:
#	150
#	25296
#	47852
#	81775
#	101701
#	127872
#	148485
#	178841
#	192530
#	232301
#	260299
#	292060
#
# Disc length: 4246 seconds
#
# Revision: 0
# Processed by: cddbd v1.5.2PL0 Copyright (c) Steve Scherf et al.
# Submitted via: CDex 1.51
#
DISCID=bd10940c
DTITLE=Gary Moore - Blue Alive
DYEAR=1900
DGENRE=Blues
TTITLE0=Cold in my hell
TTITLE1=Walking by myself
TTITLE2=Story of the blues
TTITLE3=Oh pretty woman
TTITLE4=Seperate ways
TTITLE5=Too tired
TTITLE6=Still got the blues
TTITLE7=Since I met your baby
TTITLE8=The sky is crying
TTITLE9=King of the blues
TTITLE10=Parisienne walkways
TTITLE11=Jumpin' at shadows
EXTD=
EXTT0=
EXTT1=
EXTT2=
EXTT3=
EXTT4=
EXTT5=
EXTT6=
EXTT7=
EXTT8=
EXTT9=
EXTT10=
EXTT11=
PLAYORDER=
